<mxfile host="app.diagrams.net" agent="Mozilla/5.0 (Windows NT 10.0; Win64; x64) AppleWebKit/537.36 (KHTML, like Gecko) Chrome/131.0.0.0 Safari/537.36" version="24.9.1">
  <diagram name="1 oldal" id="6E3jZs0lPBOVT4guQuDI">
    <mxGraphModel dx="2261" dy="1949" grid="1" gridSize="10" guides="1" tooltips="1" connect="1" arrows="1" fold="1" page="1" pageScale="1" pageWidth="827" pageHeight="1169" math="0" shadow="0">
      <root>
        <mxCell id="0" />
        <mxCell id="1" parent="0" />
        <mxCell id="9rKbIWEOLGtrSYCfpBkX-16" style="edgeStyle=orthogonalEdgeStyle;rounded=0;orthogonalLoop=1;jettySize=auto;html=1;exitX=0.267;exitY=0;exitDx=0;exitDy=0;exitPerimeter=0;" edge="1" parent="1" source="9rKbIWEOLGtrSYCfpBkX-1" target="9rKbIWEOLGtrSYCfpBkX-2">
          <mxGeometry relative="1" as="geometry">
            <Array as="points">
              <mxPoint x="35" y="-80" />
              <mxPoint x="35" y="-130" />
              <mxPoint x="515" y="-130" />
              <mxPoint x="515" y="20" />
            </Array>
          </mxGeometry>
        </mxCell>
        <mxCell id="9rKbIWEOLGtrSYCfpBkX-17" value="(1) Bejelentkezés &lt;font style=&quot;font-size: 12px;&quot;&gt;(&lt;em style=&quot;border: 0px solid rgb(227, 227, 227); box-sizing: border-box; --tw-border-spacing-x: 0; --tw-border-spacing-y: 0; --tw-translate-x: 0; --tw-translate-y: 0; --tw-rotate: 0; --tw-skew-x: 0; --tw-skew-y: 0; --tw-scale-x: 1; --tw-scale-y: 1; --tw-pan-x: ; --tw-pan-y: ; --tw-pinch-zoom: ; --tw-scroll-snap-strictness: proximity; --tw-gradient-from-position: ; --tw-gradient-via-position: ; --tw-gradient-to-position: ; --tw-ordinal: ; --tw-slashed-zero: ; --tw-numeric-figure: ; --tw-numeric-spacing: ; --tw-numeric-fraction: ; --tw-ring-inset: ; --tw-ring-offset-width: 0px; --tw-ring-offset-color: #fff; --tw-ring-color: rgba(69,89,164,.5); --tw-ring-offset-shadow: 0 0 #0000; --tw-ring-shadow: 0 0 #0000; --tw-shadow: 0 0 #0000; --tw-shadow-colored: 0 0 #0000; --tw-blur: ; --tw-brightness: ; --tw-contrast: ; --tw-grayscale: ; --tw-hue-rotate: ; --tw-invert: ; --tw-saturate: ; --tw-sepia: ; --tw-drop-shadow: ; --tw-backdrop-blur: ; --tw-backdrop-brightness: ; --tw-backdrop-contrast: ; --tw-backdrop-grayscale: ; --tw-backdrop-hue-rotate: ; --tw-backdrop-invert: ; --tw-backdrop-opacity: ; --tw-backdrop-saturate: ; --tw-backdrop-sepia: ; --tw-contain-size: ; --tw-contain-layout: ; --tw-contain-paint: ; --tw-contain-style: ; scrollbar-color: var(--gray-200) transparent; margin-bottom: 0px; color: rgb(13, 13, 13); font-family: ui-sans-serif, -apple-system, system-ui, &amp;quot;Segoe UI&amp;quot;, Helvetica, &amp;quot;Apple Color Emoji&amp;quot;, Arial, sans-serif, &amp;quot;Segoe UI Emoji&amp;quot;, &amp;quot;Segoe UI Symbol&amp;quot;; text-align: left; text-wrap-mode: wrap;&quot;&gt;login(email, password))&lt;/em&gt;&lt;/font&gt;" style="edgeLabel;html=1;align=center;verticalAlign=middle;resizable=0;points=[];" vertex="1" connectable="0" parent="9rKbIWEOLGtrSYCfpBkX-16">
          <mxGeometry x="0.0053" y="-1" relative="1" as="geometry">
            <mxPoint as="offset" />
          </mxGeometry>
        </mxCell>
        <mxCell id="9rKbIWEOLGtrSYCfpBkX-32" style="edgeStyle=orthogonalEdgeStyle;rounded=0;orthogonalLoop=1;jettySize=auto;html=1;entryX=0;entryY=0.875;entryDx=0;entryDy=0;entryPerimeter=0;" edge="1" parent="1" source="9rKbIWEOLGtrSYCfpBkX-1" target="9rKbIWEOLGtrSYCfpBkX-2">
          <mxGeometry relative="1" as="geometry">
            <mxPoint x="-5" y="90" as="targetPoint" />
            <Array as="points">
              <mxPoint x="-180" y="-50" />
              <mxPoint x="-180" y="120" />
              <mxPoint x="400" y="120" />
            </Array>
          </mxGeometry>
        </mxCell>
        <mxCell id="9rKbIWEOLGtrSYCfpBkX-33" value="(5) A felhasználó aktiválja a kuponját &lt;span style=&quot;background-color: rgb(255, 255, 255);&quot;&gt;&lt;font style=&quot;font-size: 12px;&quot;&gt;(&lt;span style=&quot;color: rgb(13, 13, 13); font-family: ui-monospace, SFMono-Regular, &amp;quot;SF Mono&amp;quot;, Menlo, Consolas, &amp;quot;Liberation Mono&amp;quot;, monospace; text-align: left; text-wrap-mode: wrap;&quot;&gt;applyCoupon(coupon_code)&lt;/span&gt;&lt;/font&gt;&lt;/span&gt;&lt;div&gt;&lt;span style=&quot;background-color: rgb(255, 255, 255);&quot;&gt;&lt;font style=&quot;font-size: 12px;&quot;&gt;&lt;span style=&quot;color: rgb(13, 13, 13); font-family: ui-monospace, SFMono-Regular, &amp;quot;SF Mono&amp;quot;, Menlo, Consolas, &amp;quot;Liberation Mono&amp;quot;, monospace; text-align: left; text-wrap-mode: wrap;&quot;&gt;OPCIONÁLIS&lt;/span&gt;&lt;/font&gt;&lt;/span&gt;&lt;/div&gt;" style="edgeLabel;html=1;align=center;verticalAlign=middle;resizable=0;points=[];" vertex="1" connectable="0" parent="9rKbIWEOLGtrSYCfpBkX-32">
          <mxGeometry x="0.302" y="-1" relative="1" as="geometry">
            <mxPoint as="offset" />
          </mxGeometry>
        </mxCell>
        <mxCell id="9rKbIWEOLGtrSYCfpBkX-36" style="edgeStyle=orthogonalEdgeStyle;rounded=0;orthogonalLoop=1;jettySize=auto;html=1;entryX=1.018;entryY=0.35;entryDx=0;entryDy=0;entryPerimeter=0;" edge="1" parent="1" source="9rKbIWEOLGtrSYCfpBkX-1" target="9rKbIWEOLGtrSYCfpBkX-2">
          <mxGeometry relative="1" as="geometry">
            <mxPoint x="-5" y="-220" as="targetPoint" />
            <Array as="points">
              <mxPoint x="-5" y="460" />
              <mxPoint x="660" y="460" />
              <mxPoint x="660" y="38" />
            </Array>
          </mxGeometry>
        </mxCell>
        <mxCell id="9rKbIWEOLGtrSYCfpBkX-39" value="(8) A felhasználó elindítja a fizetést a rendelés alapján &lt;span style=&quot;background-color: rgb(255, 255, 255);&quot;&gt;(&lt;span style=&quot;color: rgb(13, 13, 13); font-family: ui-monospace, SFMono-Regular, &amp;quot;SF Mono&amp;quot;, Menlo, Consolas, &amp;quot;Liberation Mono&amp;quot;, monospace; text-align: left; text-wrap-mode: wrap;&quot;&gt;&lt;font style=&quot;font-size: 12px;&quot;&gt;startPayment(order_id)&lt;/font&gt;&lt;/span&gt;&lt;/span&gt;" style="edgeLabel;html=1;align=center;verticalAlign=middle;resizable=0;points=[];" vertex="1" connectable="0" parent="9rKbIWEOLGtrSYCfpBkX-36">
          <mxGeometry x="-0.1011" y="-1" relative="1" as="geometry">
            <mxPoint as="offset" />
          </mxGeometry>
        </mxCell>
        <mxCell id="9rKbIWEOLGtrSYCfpBkX-49" style="edgeStyle=orthogonalEdgeStyle;rounded=0;orthogonalLoop=1;jettySize=auto;html=1;" edge="1" parent="1" source="9rKbIWEOLGtrSYCfpBkX-1" target="9rKbIWEOLGtrSYCfpBkX-2">
          <mxGeometry relative="1" as="geometry">
            <Array as="points">
              <mxPoint x="10" y="330" />
              <mxPoint x="-380" y="330" />
              <mxPoint x="-380" y="-270" />
              <mxPoint x="455" y="-270" />
            </Array>
          </mxGeometry>
        </mxCell>
        <mxCell id="9rKbIWEOLGtrSYCfpBkX-50" value="(7) Felhasználó választ egy szállítási módot&amp;nbsp;&lt;div&gt;&lt;span style=&quot;background-color: rgb(255, 255, 255);&quot;&gt;&lt;font style=&quot;font-size: 12px;&quot;&gt;(&lt;span style=&quot;color: rgb(13, 13, 13); font-family: ui-monospace, SFMono-Regular, &amp;quot;SF Mono&amp;quot;, Menlo, Consolas, &amp;quot;Liberation Mono&amp;quot;, monospace; text-align: left; text-wrap-mode: wrap;&quot;&gt;chooseShippingOption(shipping_method)&lt;/span&gt;&lt;/font&gt;&lt;/span&gt;&lt;/div&gt;" style="edgeLabel;html=1;align=center;verticalAlign=middle;resizable=0;points=[];" vertex="1" connectable="0" parent="9rKbIWEOLGtrSYCfpBkX-49">
          <mxGeometry x="-0.5226" relative="1" as="geometry">
            <mxPoint as="offset" />
          </mxGeometry>
        </mxCell>
        <mxCell id="9rKbIWEOLGtrSYCfpBkX-1" value="Felhasználó (User)" style="shape=umlActor;verticalLabelPosition=bottom;verticalAlign=top;html=1;" vertex="1" parent="1">
          <mxGeometry x="-20" y="-80" width="30" height="60" as="geometry" />
        </mxCell>
        <mxCell id="9rKbIWEOLGtrSYCfpBkX-19" style="edgeStyle=orthogonalEdgeStyle;rounded=0;orthogonalLoop=1;jettySize=auto;html=1;entryX=0;entryY=0.313;entryDx=0;entryDy=0;entryPerimeter=0;exitX=0.667;exitY=0.833;exitDx=0;exitDy=0;exitPerimeter=0;" edge="1" parent="1" source="9rKbIWEOLGtrSYCfpBkX-1" target="9rKbIWEOLGtrSYCfpBkX-2">
          <mxGeometry relative="1" as="geometry">
            <mxPoint x="590" y="240" as="targetPoint" />
            <mxPoint x="60" y="-30" as="sourcePoint" />
            <Array as="points">
              <mxPoint x="60" y="-30" />
              <mxPoint x="60" y="35" />
            </Array>
          </mxGeometry>
        </mxCell>
        <mxCell id="9rKbIWEOLGtrSYCfpBkX-20" value="(3) Termék hozzáadása a kosárhoz&amp;nbsp;&lt;div&gt;&lt;div&gt;&lt;font style=&quot;font-size: 12px;&quot;&gt;(&lt;em style=&quot;border: 0px solid rgb(227, 227, 227); box-sizing: border-box; --tw-border-spacing-x: 0; --tw-border-spacing-y: 0; --tw-translate-x: 0; --tw-translate-y: 0; --tw-rotate: 0; --tw-skew-x: 0; --tw-skew-y: 0; --tw-scale-x: 1; --tw-scale-y: 1; --tw-pan-x: ; --tw-pan-y: ; --tw-pinch-zoom: ; --tw-scroll-snap-strictness: proximity; --tw-gradient-from-position: ; --tw-gradient-via-position: ; --tw-gradient-to-position: ; --tw-ordinal: ; --tw-slashed-zero: ; --tw-numeric-figure: ; --tw-numeric-spacing: ; --tw-numeric-fraction: ; --tw-ring-inset: ; --tw-ring-offset-width: 0px; --tw-ring-offset-color: #fff; --tw-ring-color: rgba(69,89,164,.5); --tw-ring-offset-shadow: 0 0 #0000; --tw-ring-shadow: 0 0 #0000; --tw-shadow: 0 0 #0000; --tw-shadow-colored: 0 0 #0000; --tw-blur: ; --tw-brightness: ; --tw-contrast: ; --tw-grayscale: ; --tw-hue-rotate: ; --tw-invert: ; --tw-saturate: ; --tw-sepia: ; --tw-drop-shadow: ; --tw-backdrop-blur: ; --tw-backdrop-brightness: ; --tw-backdrop-contrast: ; --tw-backdrop-grayscale: ; --tw-backdrop-hue-rotate: ; --tw-backdrop-invert: ; --tw-backdrop-opacity: ; --tw-backdrop-saturate: ; --tw-backdrop-sepia: ; --tw-contain-size: ; --tw-contain-layout: ; --tw-contain-paint: ; --tw-contain-style: ; scrollbar-color: var(--gray-200) transparent; margin-bottom: 0px; color: rgb(13, 13, 13); font-family: ui-sans-serif, -apple-system, system-ui, &amp;quot;Segoe UI&amp;quot;, Helvetica, &amp;quot;Apple Color Emoji&amp;quot;, Arial, sans-serif, &amp;quot;Segoe UI Emoji&amp;quot;, &amp;quot;Segoe UI Symbol&amp;quot;; text-align: left; text-wrap-mode: wrap;&quot;&gt;addProduct(product_id)&lt;/em&gt;&lt;span style=&quot;color: rgb(13, 13, 13); font-family: ui-sans-serif, -apple-system, system-ui, &amp;quot;Segoe UI&amp;quot;, Helvetica, &amp;quot;Apple Color Emoji&amp;quot;, Arial, sans-serif, &amp;quot;Segoe UI Emoji&amp;quot;, &amp;quot;Segoe UI Symbol&amp;quot;; text-align: left; text-wrap-mode: wrap;&quot;&gt;)&lt;/span&gt;&lt;/font&gt;&lt;/div&gt;&lt;/div&gt;" style="edgeLabel;html=1;align=center;verticalAlign=middle;resizable=0;points=[];" vertex="1" connectable="0" parent="9rKbIWEOLGtrSYCfpBkX-19">
          <mxGeometry x="0.0278" y="1" relative="1" as="geometry">
            <mxPoint as="offset" />
          </mxGeometry>
        </mxCell>
        <mxCell id="9rKbIWEOLGtrSYCfpBkX-28" style="edgeStyle=orthogonalEdgeStyle;rounded=0;orthogonalLoop=1;jettySize=auto;html=1;exitX=0.75;exitY=0;exitDx=0;exitDy=0;" edge="1" parent="1" source="9rKbIWEOLGtrSYCfpBkX-2" target="9rKbIWEOLGtrSYCfpBkX-1">
          <mxGeometry relative="1" as="geometry">
            <Array as="points">
              <mxPoint x="483" y="-50" />
            </Array>
          </mxGeometry>
        </mxCell>
        <mxCell id="9rKbIWEOLGtrSYCfpBkX-29" value="(2) Webáruház válasza &lt;font style=&quot;font-size: 12px;&quot;&gt;(&lt;span style=&quot;color: rgb(13, 13, 13); font-family: ui-monospace, SFMono-Regular, &amp;quot;SF Mono&amp;quot;, Menlo, Consolas, &amp;quot;Liberation Mono&amp;quot;, monospace; text-align: left; text-wrap-mode: wrap;&quot;&gt;loginResponse(success/failure)&lt;/span&gt;&lt;/font&gt;" style="edgeLabel;html=1;align=center;verticalAlign=middle;resizable=0;points=[];" vertex="1" connectable="0" parent="9rKbIWEOLGtrSYCfpBkX-28">
          <mxGeometry x="-0.0989" y="-3" relative="1" as="geometry">
            <mxPoint as="offset" />
          </mxGeometry>
        </mxCell>
        <mxCell id="9rKbIWEOLGtrSYCfpBkX-30" style="edgeStyle=orthogonalEdgeStyle;rounded=0;orthogonalLoop=1;jettySize=auto;html=1;entryX=1;entryY=0.5;entryDx=0;entryDy=0;" edge="1" parent="1" source="9rKbIWEOLGtrSYCfpBkX-2" target="9rKbIWEOLGtrSYCfpBkX-3">
          <mxGeometry relative="1" as="geometry">
            <mxPoint x="560" y="250" as="targetPoint" />
            <Array as="points">
              <mxPoint x="590" y="50" />
              <mxPoint x="590" y="235" />
            </Array>
          </mxGeometry>
        </mxCell>
        <mxCell id="9rKbIWEOLGtrSYCfpBkX-31" value="(4) A Webáruház hozzáadja a terméket a kosárhoz &lt;span style=&quot;background-color: rgb(255, 255, 255);&quot;&gt;&lt;font style=&quot;font-size: 12px;&quot;&gt;(&lt;span style=&quot;color: rgb(13, 13, 13); font-family: ui-monospace, SFMono-Regular, &amp;quot;SF Mono&amp;quot;, Menlo, Consolas, &amp;quot;Liberation Mono&amp;quot;, monospace; text-align: left; text-wrap-mode: wrap;&quot;&gt;addProductToCart(product_id)&lt;/span&gt;&lt;/font&gt;&lt;/span&gt;" style="edgeLabel;html=1;align=center;verticalAlign=middle;resizable=0;points=[];" vertex="1" connectable="0" parent="9rKbIWEOLGtrSYCfpBkX-30">
          <mxGeometry x="-0.0029" relative="1" as="geometry">
            <mxPoint y="-42" as="offset" />
          </mxGeometry>
        </mxCell>
        <mxCell id="9rKbIWEOLGtrSYCfpBkX-34" style="edgeStyle=orthogonalEdgeStyle;rounded=0;orthogonalLoop=1;jettySize=auto;html=1;entryX=1;entryY=0;entryDx=0;entryDy=0;exitX=1;exitY=0.75;exitDx=0;exitDy=0;" edge="1" parent="1" source="9rKbIWEOLGtrSYCfpBkX-2" target="9rKbIWEOLGtrSYCfpBkX-3">
          <mxGeometry relative="1" as="geometry">
            <Array as="points">
              <mxPoint x="540" y="70" />
              <mxPoint x="540" y="210" />
            </Array>
          </mxGeometry>
        </mxCell>
        <mxCell id="9rKbIWEOLGtrSYCfpBkX-35" value="(6) A webáruház alkalmazza a kuponkódot &lt;span style=&quot;background-color: rgb(255, 255, 255);&quot;&gt;&lt;font style=&quot;font-size: 12px;&quot;&gt;(&lt;span style=&quot;color: rgb(13, 13, 13); font-family: ui-monospace, SFMono-Regular, &amp;quot;SF Mono&amp;quot;, Menlo, Consolas, &amp;quot;Liberation Mono&amp;quot;, monospace; text-align: left; text-wrap-mode: wrap;&quot;&gt;applyDiscount(discount_amount)&lt;/span&gt;&lt;/font&gt;&lt;/span&gt;&lt;div&gt;&lt;span style=&quot;background-color: rgb(255, 255, 255);&quot;&gt;&lt;font style=&quot;font-size: 12px;&quot;&gt;&lt;span style=&quot;color: rgb(13, 13, 13); font-family: ui-monospace, SFMono-Regular, &amp;quot;SF Mono&amp;quot;, Menlo, Consolas, &amp;quot;Liberation Mono&amp;quot;, monospace; text-align: left; text-wrap-mode: wrap;&quot;&gt;OPCIONÁLIS&lt;/span&gt;&lt;/font&gt;&lt;/span&gt;&lt;/div&gt;" style="edgeLabel;html=1;align=center;verticalAlign=middle;resizable=0;points=[];" vertex="1" connectable="0" parent="9rKbIWEOLGtrSYCfpBkX-34">
          <mxGeometry x="-0.31" y="-1" relative="1" as="geometry">
            <mxPoint x="1" y="51" as="offset" />
          </mxGeometry>
        </mxCell>
        <mxCell id="9rKbIWEOLGtrSYCfpBkX-40" style="edgeStyle=orthogonalEdgeStyle;rounded=0;orthogonalLoop=1;jettySize=auto;html=1;exitX=0;exitY=0.75;exitDx=0;exitDy=0;entryX=0;entryY=0.5;entryDx=0;entryDy=0;" edge="1" parent="1" source="9rKbIWEOLGtrSYCfpBkX-2" target="9rKbIWEOLGtrSYCfpBkX-6">
          <mxGeometry relative="1" as="geometry">
            <Array as="points">
              <mxPoint x="290" y="70" />
              <mxPoint x="290" y="575" />
            </Array>
          </mxGeometry>
        </mxCell>
        <mxCell id="9rKbIWEOLGtrSYCfpBkX-41" value="(9) A webáruház továbbítja a fizetést a fizetési szolgáltató felé.&lt;div&gt;&lt;font style=&quot;font-size: 12px;&quot;&gt;(&lt;span style=&quot;color: rgb(13, 13, 13); font-family: ui-monospace, SFMono-Regular, &amp;quot;SF Mono&amp;quot;, Menlo, Consolas, &amp;quot;Liberation Mono&amp;quot;, monospace; text-align: left; text-wrap-mode: wrap;&quot;&gt;processPayment(order_id, amount)&lt;/span&gt;&lt;/font&gt;&lt;/div&gt;" style="edgeLabel;html=1;align=center;verticalAlign=middle;resizable=0;points=[];" vertex="1" connectable="0" parent="9rKbIWEOLGtrSYCfpBkX-40">
          <mxGeometry x="0.2772" y="1" relative="1" as="geometry">
            <mxPoint y="97" as="offset" />
          </mxGeometry>
        </mxCell>
        <mxCell id="9rKbIWEOLGtrSYCfpBkX-44" style="edgeStyle=orthogonalEdgeStyle;rounded=0;orthogonalLoop=1;jettySize=auto;html=1;entryX=0.25;entryY=0.1;entryDx=0;entryDy=0;entryPerimeter=0;" edge="1" parent="1" source="9rKbIWEOLGtrSYCfpBkX-2" target="9rKbIWEOLGtrSYCfpBkX-1">
          <mxGeometry relative="1" as="geometry">
            <mxPoint x="455" y="-420" as="targetPoint" />
            <Array as="points">
              <mxPoint x="1110" y="50" />
              <mxPoint x="1110" y="630" />
              <mxPoint x="-12" y="630" />
            </Array>
          </mxGeometry>
        </mxCell>
        <mxCell id="9rKbIWEOLGtrSYCfpBkX-45" value="(11) A webáruház visszaigazolja a sikeres fizetést&lt;div&gt;és a rendelés teljesítését a felhasználónak&lt;/div&gt;&lt;div&gt;&lt;font style=&quot;font-size: 12px;&quot;&gt;(&lt;span style=&quot;color: rgb(13, 13, 13); font-family: ui-monospace, SFMono-Regular, &amp;quot;SF Mono&amp;quot;, Menlo, Consolas, &amp;quot;Liberation Mono&amp;quot;, monospace; text-align: left; text-wrap-mode: wrap;&quot;&gt;paymentConfirmation(order_id)&lt;/span&gt;&lt;/font&gt;&lt;/div&gt;" style="edgeLabel;html=1;align=center;verticalAlign=middle;resizable=0;points=[];" vertex="1" connectable="0" parent="9rKbIWEOLGtrSYCfpBkX-44">
          <mxGeometry x="0.1156" y="2" relative="1" as="geometry">
            <mxPoint as="offset" />
          </mxGeometry>
        </mxCell>
        <mxCell id="9rKbIWEOLGtrSYCfpBkX-55" style="edgeStyle=orthogonalEdgeStyle;rounded=0;orthogonalLoop=1;jettySize=auto;html=1;exitX=1;exitY=1;exitDx=0;exitDy=0;" edge="1" parent="1" source="9rKbIWEOLGtrSYCfpBkX-2">
          <mxGeometry relative="1" as="geometry">
            <mxPoint x="1100" y="-20" as="targetPoint" />
            <Array as="points">
              <mxPoint x="510" />
              <mxPoint x="1101" />
            </Array>
          </mxGeometry>
        </mxCell>
        <mxCell id="9rKbIWEOLGtrSYCfpBkX-56" value="(II) A webáruház létrehozza&lt;div&gt;az új terméket, frissíti a&lt;/div&gt;&lt;div&gt;&amp;nbsp;termékadatokat, törli&amp;nbsp;&lt;/div&gt;&lt;div&gt;a terméket.&lt;/div&gt;" style="edgeLabel;html=1;align=center;verticalAlign=middle;resizable=0;points=[];" vertex="1" connectable="0" parent="9rKbIWEOLGtrSYCfpBkX-55">
          <mxGeometry x="0.398" y="-1" relative="1" as="geometry">
            <mxPoint x="-30" y="-1" as="offset" />
          </mxGeometry>
        </mxCell>
        <mxCell id="9rKbIWEOLGtrSYCfpBkX-57" style="edgeStyle=orthogonalEdgeStyle;rounded=0;orthogonalLoop=1;jettySize=auto;html=1;exitX=0.25;exitY=1;exitDx=0;exitDy=0;entryX=0;entryY=0.75;entryDx=0;entryDy=0;" edge="1" parent="1" source="9rKbIWEOLGtrSYCfpBkX-2" target="9rKbIWEOLGtrSYCfpBkX-7">
          <mxGeometry relative="1" as="geometry">
            <mxPoint x="320" y="860" as="targetPoint" />
            <Array as="points">
              <mxPoint x="320" y="90" />
              <mxPoint x="320" y="370" />
              <mxPoint x="-130" y="370" />
              <mxPoint x="-130" y="838" />
            </Array>
          </mxGeometry>
        </mxCell>
        <mxCell id="9rKbIWEOLGtrSYCfpBkX-58" value="(12) A webáruház elindítja a szállítást &lt;span style=&quot;background-color: rgb(255, 255, 255);&quot;&gt;&lt;font style=&quot;font-size: 12px;&quot;&gt;(&lt;span style=&quot;color: rgb(13, 13, 13); font-family: ui-monospace, SFMono-Regular, &amp;quot;SF Mono&amp;quot;, Menlo, Consolas, &amp;quot;Liberation Mono&amp;quot;, monospace; text-align: left; text-wrap-mode: wrap;&quot;&gt;shippingConfirmation(shipping_method)&lt;/span&gt;&lt;/font&gt;&lt;/span&gt;" style="edgeLabel;html=1;align=center;verticalAlign=middle;resizable=0;points=[];" vertex="1" connectable="0" parent="9rKbIWEOLGtrSYCfpBkX-57">
          <mxGeometry x="0.6033" y="3" relative="1" as="geometry">
            <mxPoint y="1" as="offset" />
          </mxGeometry>
        </mxCell>
        <mxCell id="9rKbIWEOLGtrSYCfpBkX-2" value="Webáruház (Webshop)" style="html=1;whiteSpace=wrap;" vertex="1" parent="1">
          <mxGeometry x="400" y="10" width="110" height="80" as="geometry" />
        </mxCell>
        <mxCell id="9rKbIWEOLGtrSYCfpBkX-3" value="Kosár (Cart)" style="html=1;whiteSpace=wrap;" vertex="1" parent="1">
          <mxGeometry x="400" y="210" width="110" height="50" as="geometry" />
        </mxCell>
        <mxCell id="9rKbIWEOLGtrSYCfpBkX-42" style="edgeStyle=orthogonalEdgeStyle;rounded=0;orthogonalLoop=1;jettySize=auto;html=1;entryX=0.891;entryY=-0.025;entryDx=0;entryDy=0;entryPerimeter=0;" edge="1" parent="1" source="9rKbIWEOLGtrSYCfpBkX-6" target="9rKbIWEOLGtrSYCfpBkX-2">
          <mxGeometry relative="1" as="geometry">
            <mxPoint x="740" y="-10" as="targetPoint" />
            <Array as="points">
              <mxPoint x="960" y="575" />
              <mxPoint x="960" y="-210" />
              <mxPoint x="498" y="-210" />
            </Array>
          </mxGeometry>
        </mxCell>
        <mxCell id="9rKbIWEOLGtrSYCfpBkX-43" value="(10) A fizetési szolgáltató visszaigazolja a&lt;div&gt;webáruház felé a fizetés sikerességét vagy hibáját&amp;nbsp;&lt;/div&gt;&lt;div&gt;&lt;font style=&quot;font-size: 12px;&quot;&gt;(&lt;span style=&quot;color: rgb(13, 13, 13); font-family: ui-monospace, SFMono-Regular, &amp;quot;SF Mono&amp;quot;, Menlo, Consolas, &amp;quot;Liberation Mono&amp;quot;, monospace; text-align: left; text-wrap-mode: wrap;&quot;&gt;paymentResponse(success/failure)&lt;/span&gt;&lt;/font&gt;&lt;/div&gt;" style="edgeLabel;html=1;align=center;verticalAlign=middle;resizable=0;points=[];" vertex="1" connectable="0" parent="9rKbIWEOLGtrSYCfpBkX-42">
          <mxGeometry x="-0.8465" relative="1" as="geometry">
            <mxPoint x="93" as="offset" />
          </mxGeometry>
        </mxCell>
        <mxCell id="9rKbIWEOLGtrSYCfpBkX-6" value="Fizetés (Payment)" style="html=1;whiteSpace=wrap;" vertex="1" parent="1">
          <mxGeometry x="400" y="550" width="110" height="50" as="geometry" />
        </mxCell>
        <mxCell id="9rKbIWEOLGtrSYCfpBkX-61" style="edgeStyle=orthogonalEdgeStyle;rounded=0;orthogonalLoop=1;jettySize=auto;html=1;exitX=0.75;exitY=1;exitDx=0;exitDy=0;entryX=1;entryY=1;entryDx=0;entryDy=0;" edge="1" parent="1" source="9rKbIWEOLGtrSYCfpBkX-7" target="9rKbIWEOLGtrSYCfpBkX-2">
          <mxGeometry relative="1" as="geometry">
            <Array as="points">
              <mxPoint x="483" y="870" />
              <mxPoint x="610" y="870" />
              <mxPoint x="610" y="1000" />
              <mxPoint x="990" y="1000" />
              <mxPoint x="990" y="90" />
            </Array>
          </mxGeometry>
        </mxCell>
        <mxCell id="9rKbIWEOLGtrSYCfpBkX-62" value="(14) A szállító visszaigazolja a szállítás elvégzését a webáruház felé&lt;div&gt;&lt;span style=&quot;color: rgb(13, 13, 13); font-family: ui-monospace, SFMono-Regular, &amp;quot;SF Mono&amp;quot;, Menlo, Consolas, &amp;quot;Liberation Mono&amp;quot;, monospace; text-align: left; text-wrap-mode: wrap; background-color: rgb(250, 250, 250);&quot;&gt;&lt;font style=&quot;font-size: 12px;&quot;&gt;(confirmDelivery(order_id)&lt;/font&gt;&lt;/span&gt;&lt;/div&gt;" style="edgeLabel;html=1;align=center;verticalAlign=middle;resizable=0;points=[];" vertex="1" connectable="0" parent="9rKbIWEOLGtrSYCfpBkX-61">
          <mxGeometry x="-0.5785" y="1" relative="1" as="geometry">
            <mxPoint as="offset" />
          </mxGeometry>
        </mxCell>
        <mxCell id="9rKbIWEOLGtrSYCfpBkX-7" value="Szállítás (Shipping)" style="html=1;whiteSpace=wrap;" vertex="1" parent="1">
          <mxGeometry x="400" y="800" width="110" height="50" as="geometry" />
        </mxCell>
        <mxCell id="9rKbIWEOLGtrSYCfpBkX-8" value="" style="endArrow=none;dashed=1;html=1;rounded=0;entryX=0.5;entryY=1;entryDx=0;entryDy=0;exitX=0.5;exitY=0;exitDx=0;exitDy=0;" edge="1" parent="1" source="9rKbIWEOLGtrSYCfpBkX-3" target="9rKbIWEOLGtrSYCfpBkX-2">
          <mxGeometry width="50" height="50" relative="1" as="geometry">
            <mxPoint x="390" y="280" as="sourcePoint" />
            <mxPoint x="440" y="230" as="targetPoint" />
          </mxGeometry>
        </mxCell>
        <mxCell id="9rKbIWEOLGtrSYCfpBkX-9" value="" style="endArrow=none;dashed=1;html=1;rounded=0;entryX=0.5;entryY=1;entryDx=0;entryDy=0;exitX=0.5;exitY=0;exitDx=0;exitDy=0;" edge="1" parent="1" source="9rKbIWEOLGtrSYCfpBkX-6" target="9rKbIWEOLGtrSYCfpBkX-3">
          <mxGeometry width="50" height="50" relative="1" as="geometry">
            <mxPoint x="455" y="380" as="sourcePoint" />
            <mxPoint x="440" y="230" as="targetPoint" />
          </mxGeometry>
        </mxCell>
        <mxCell id="9rKbIWEOLGtrSYCfpBkX-11" value="" style="endArrow=none;dashed=1;html=1;rounded=0;entryX=0.5;entryY=1;entryDx=0;entryDy=0;exitX=0.5;exitY=0;exitDx=0;exitDy=0;" edge="1" parent="1" source="9rKbIWEOLGtrSYCfpBkX-7" target="9rKbIWEOLGtrSYCfpBkX-6">
          <mxGeometry width="50" height="50" relative="1" as="geometry">
            <mxPoint x="455" y="680" as="sourcePoint" />
            <mxPoint x="440" y="530" as="targetPoint" />
          </mxGeometry>
        </mxCell>
        <mxCell id="9rKbIWEOLGtrSYCfpBkX-53" style="edgeStyle=orthogonalEdgeStyle;rounded=0;orthogonalLoop=1;jettySize=auto;html=1;entryX=1;entryY=0.25;entryDx=0;entryDy=0;" edge="1" parent="1" source="9rKbIWEOLGtrSYCfpBkX-15" target="9rKbIWEOLGtrSYCfpBkX-2">
          <mxGeometry relative="1" as="geometry" />
        </mxCell>
        <mxCell id="9rKbIWEOLGtrSYCfpBkX-54" value="(I) Új terméked ad hozzá a&lt;div&gt;webáruházhoz, f&lt;/div&gt;&lt;div&gt;rissíti a termékadatokat,&amp;nbsp;&lt;/div&gt;&lt;div&gt;eltávolít termékeket stb.&lt;/div&gt;" style="edgeLabel;html=1;align=center;verticalAlign=middle;resizable=0;points=[];" vertex="1" connectable="0" parent="9rKbIWEOLGtrSYCfpBkX-53">
          <mxGeometry x="-0.3642" y="2" relative="1" as="geometry">
            <mxPoint as="offset" />
          </mxGeometry>
        </mxCell>
        <mxCell id="9rKbIWEOLGtrSYCfpBkX-15" value="Adminisztrátor (Admin)" style="shape=umlActor;verticalLabelPosition=bottom;verticalAlign=top;html=1;" vertex="1" parent="1">
          <mxGeometry x="1080" y="-100" width="30" height="60" as="geometry" />
        </mxCell>
        <mxCell id="9rKbIWEOLGtrSYCfpBkX-59" style="edgeStyle=orthogonalEdgeStyle;rounded=0;orthogonalLoop=1;jettySize=auto;html=1;entryX=0.25;entryY=0.1;entryDx=0;entryDy=0;entryPerimeter=0;" edge="1" parent="1" source="9rKbIWEOLGtrSYCfpBkX-7" target="9rKbIWEOLGtrSYCfpBkX-1">
          <mxGeometry relative="1" as="geometry">
            <Array as="points">
              <mxPoint x="455" y="890" />
              <mxPoint x="-400" y="890" />
              <mxPoint x="-400" y="-74" />
            </Array>
          </mxGeometry>
        </mxCell>
        <mxCell id="9rKbIWEOLGtrSYCfpBkX-60" value="(13) A szállító kiszállítja a terméket a felhasználónak &lt;span style=&quot;background-color: rgb(255, 255, 255);&quot;&gt;&lt;font style=&quot;font-size: 12px;&quot;&gt;(&lt;span style=&quot;color: rgb(13, 13, 13); font-family: ui-monospace, SFMono-Regular, &amp;quot;SF Mono&amp;quot;, Menlo, Consolas, &amp;quot;Liberation Mono&amp;quot;, monospace; text-align: left; text-wrap-mode: wrap;&quot;&gt;deliverProduct(order_id)&lt;/span&gt;&lt;/font&gt;&lt;/span&gt;" style="edgeLabel;html=1;align=center;verticalAlign=middle;resizable=0;points=[];" vertex="1" connectable="0" parent="9rKbIWEOLGtrSYCfpBkX-59">
          <mxGeometry x="-0.5976" y="-3" relative="1" as="geometry">
            <mxPoint as="offset" />
          </mxGeometry>
        </mxCell>
      </root>
    </mxGraphModel>
  </diagram>
</mxfile>
